<svg width="500" height="500" viewBox="0 0 500 500" fill="none" xmlns="http://www.w3.org/2000/svg">
<circle cx="250.736" cy="254.883" r="165.773" fill="#666666"/>
<path d="M278.05 355.704L154.233 301.264L63 255.535L178.128 207.628C178.128 207.628 203.671 149.249 237.663 113.992C271.654 78.735 342.774 41 342.774 41C342.774 41 356.893 111.967 356.893 164.076C356.893 216.186 332.355 270.778 332.355 270.778L373.628 392.723L278.05 355.704Z" fill="#13ED9A"/>
<path d="M265.379 365.747L154.233 318.159L162.359 428.5L265.379 365.747Z" fill="#13ED9A"/>
<path d="M178.128 207.628L154.233 301.264M178.128 207.628L63 255.535L154.233 301.264M178.128 207.628C178.128 207.628 203.671 149.249 237.663 113.992C271.654 78.735 342.774 41 342.774 41C342.774 41 356.893 111.967 356.893 164.076C356.893 216.186 332.355 270.778 332.355 270.778M332.355 270.778L278.05 355.704M332.355 270.778L373.628 392.723L278.05 355.704M154.233 301.264L278.05 355.704M154.233 318.159L265.379 365.747L162.359 428.5L154.233 318.159Z" stroke="#666666" stroke-width="10"/>
<circle cx="281.59" cy="183.24" r="42.8812" fill="#666666"/>
</svg>
