<svg width="500" height="500" viewBox="0 0 500 500" fill="none" xmlns="http://www.w3.org/2000/svg">
<g clip-path="url(#clip0_397_69)">
<rect width="500" height="500" fill="#969696"/>
<path d="M350 180C350 235.228 305.228 280 250 280C194.772 280 150 235.228 150 180C150 124.772 194.772 80 250 80C305.228 80 350 124.772 350 180Z" fill="#D9D9D9"/>
<path d="M350 180C350 235.228 305.228 280 250 280C194.772 280 150 235.228 150 180C150 124.772 194.772 80 250 80C305.228 80 350 124.772 350 180Z" fill="#D9D9D9"/>
<path d="M459 450C459 560.457 365.204 650 249.5 650C133.796 650 40 560.457 40 450C40 339.543 133.796 250 249.5 250C365.204 250 459 339.543 459 450Z" fill="#D9D9D9"/>
<path d="M459 450C459 560.457 365.204 650 249.5 650C133.796 650 40 560.457 40 450C40 339.543 133.796 250 249.5 250C365.204 250 459 339.543 459 450Z" fill="#D9D9D9"/>
</g>
<defs>
<clipPath id="clip0_397_69">
<rect width="500" height="500" fill="white"/>
</clipPath>
</defs>
</svg>
