<svg width="1130" height="615" viewBox="0 0 1130 615" fill="none" xmlns="http://www.w3.org/2000/svg">
<circle cx="575.736" cy="309.883" r="165.773" fill="#666666"/>
<path d="M603.05 410.704L479.233 356.264L388 310.535L503.128 262.628C503.128 262.628 528.671 204.249 562.663 168.992C596.654 133.735 667.774 96 667.774 96C667.774 96 681.893 166.967 681.893 219.076C681.893 271.186 657.355 325.778 657.355 325.778L698.628 447.723L603.05 410.704Z" fill="#13ED9A"/>
<path d="M590.379 420.747L479.233 373.159L487.359 483.5L590.379 420.747Z" fill="#13ED9A"/>
<path d="M503.128 262.628L479.233 356.264M503.128 262.628L388 310.535L479.233 356.264M503.128 262.628C503.128 262.628 528.671 204.249 562.663 168.992C596.654 133.735 667.774 96 667.774 96C667.774 96 681.893 166.967 681.893 219.076C681.893 271.186 657.355 325.778 657.355 325.778M657.355 325.778L603.05 410.704M657.355 325.778L698.628 447.723L603.05 410.704M479.233 356.264L603.05 410.704M479.233 373.159L590.379 420.747L487.359 483.5L479.233 373.159Z" stroke="#666666" stroke-width="10"/>
<circle cx="606.59" cy="238.24" r="42.8812" fill="#666666"/>
<path d="M15.5 415.5V361L180.5 139H265.5L104 361L64.5 349.5H340V415.5H15.5ZM204 489V415.5L206.5 349.5V284H283V489H204Z" fill="#666666"/>
<path d="M800.5 410.5V356L965.5 134H1050.5L889 356L849.5 344.5H1125V410.5H800.5ZM989 484V410.5L991.5 344.5V279H1068V484H989Z" fill="#666666"/>
</svg>
