<svg width="500" height="500" viewBox="0 0 500 500" fill="none" xmlns="http://www.w3.org/2000/svg">
<rect x="7" y="7" width="486" height="486" fill="#969696"/>
<path d="M288.05 370.704L164.233 316.264L73 270.535L188.128 222.628C188.128 222.628 213.671 164.249 247.663 128.992C281.654 93.735 352.774 56 352.774 56C352.774 56 366.893 126.967 366.893 179.076C366.893 231.186 342.355 285.778 342.355 285.778L383.628 407.723L288.05 370.704Z" fill="#969696"/>
<path d="M275.379 380.747L164.233 333.159L172.359 443.5L275.379 380.747Z" fill="#969696"/>
<path d="M188.128 222.628L164.233 316.264M188.128 222.628L73 270.535L164.233 316.264M188.128 222.628C188.128 222.628 213.671 164.249 247.663 128.992C281.654 93.735 352.774 56 352.774 56C352.774 56 366.893 126.967 366.893 179.076C366.893 231.186 342.355 285.778 342.355 285.778M342.355 285.778L288.05 370.704M342.355 285.778L383.628 407.723L288.05 370.704M164.233 316.264L288.05 370.704M164.233 333.159L275.379 380.747L172.359 443.5L164.233 333.159Z" stroke="#666666" stroke-opacity="0.5" stroke-width="10"/>
<path fill-rule="evenodd" clip-rule="evenodd" d="M164.233 316.264L288.05 370.704L363.536 399.941C335.281 422.304 299.568 435.656 260.736 435.656C240.244 435.656 220.62 431.938 202.502 425.139L275.379 380.747L164.233 333.159L169.781 408.498C127.818 380.907 99.1332 334.774 95.382 281.754L164.233 316.264ZM95.1816 261.305C99.6455 173.738 172.06 104.111 260.736 104.111C265.771 104.111 270.753 104.335 275.674 104.775C265.251 112.652 255.476 120.888 247.663 128.992C213.672 164.249 188.128 222.628 188.128 222.628L95.1816 261.305ZM364.975 140.977C366.137 153.945 366.894 167.016 366.894 179.076C366.894 231.186 342.355 285.778 342.355 285.778L376.977 388.072C407.55 358 426.509 316.156 426.509 269.883C426.509 217.824 402.511 171.369 364.975 140.977Z" fill="#666666" fill-opacity="0.5"/>
<circle cx="291.59" cy="198.24" r="42.8812" fill="#666666" fill-opacity="0.5"/>
<path d="M61.28 264V252.56L62.76 256.48L50.44 236H57.32L66.76 251.72H62.8L72.28 236H78.64L66.32 256.48L67.76 252.56V264H61.28ZM93.7403 264.48C91.527 264.48 89.4736 264.12 87.5803 263.4C85.7136 262.68 84.087 261.667 82.7003 260.36C81.3403 259.053 80.2736 257.52 79.5003 255.76C78.7536 254 78.3803 252.08 78.3803 250C78.3803 247.92 78.7536 246 79.5003 244.24C80.2736 242.48 81.3536 240.947 82.7403 239.64C84.127 238.333 85.7536 237.32 87.6203 236.6C89.487 235.88 91.5136 235.52 93.7003 235.52C95.9136 235.52 97.9403 235.88 99.7803 236.6C101.647 237.32 103.26 238.333 104.62 239.64C106.007 240.947 107.087 242.48 107.86 244.24C108.634 245.973 109.02 247.893 109.02 250C109.02 252.08 108.634 254.013 107.86 255.8C107.087 257.56 106.007 259.093 104.62 260.4C103.26 261.68 101.647 262.68 99.7803 263.4C97.9403 264.12 95.927 264.48 93.7403 264.48ZM93.7003 258.96C94.9536 258.96 96.1003 258.747 97.1403 258.32C98.207 257.893 99.1403 257.28 99.9403 256.48C100.74 255.68 101.354 254.733 101.78 253.64C102.234 252.547 102.46 251.333 102.46 250C102.46 248.667 102.234 247.453 101.78 246.36C101.354 245.267 100.74 244.32 99.9403 243.52C99.167 242.72 98.247 242.107 97.1803 241.68C96.1136 241.253 94.9536 241.04 93.7003 241.04C92.447 241.04 91.287 241.253 90.2203 241.68C89.1803 242.107 88.2603 242.72 87.4603 243.52C86.6603 244.32 86.0336 245.267 85.5803 246.36C85.1536 247.453 84.9403 248.667 84.9403 250C84.9403 251.307 85.1536 252.52 85.5803 253.64C86.0336 254.733 86.647 255.68 87.4203 256.48C88.2203 257.28 89.1536 257.893 90.2203 258.32C91.287 258.747 92.447 258.96 93.7003 258.96ZM126.33 264.48C122.357 264.48 119.25 263.373 117.01 261.16C114.77 258.947 113.65 255.787 113.65 251.68V236H120.13V251.44C120.13 254.107 120.677 256.027 121.77 257.2C122.864 258.373 124.397 258.96 126.37 258.96C128.344 258.96 129.877 258.373 130.97 257.2C132.064 256.027 132.61 254.107 132.61 251.44V236H139.01V251.68C139.01 255.787 137.89 258.947 135.65 261.16C133.41 263.373 130.304 264.48 126.33 264.48ZM145.414 264V236H157.534C160.04 236 162.2 236.413 164.014 237.24C165.827 238.04 167.227 239.2 168.214 240.72C169.2 242.24 169.694 244.053 169.694 246.16C169.694 248.24 169.2 250.04 168.214 251.56C167.227 253.053 165.827 254.2 164.014 255C162.2 255.8 160.04 256.2 157.534 256.2H149.014L151.894 253.36V264H145.414ZM163.214 264L156.214 253.84H163.134L170.214 264H163.214ZM151.894 254.08L149.014 251.04H157.174C159.174 251.04 160.667 250.613 161.654 249.76C162.64 248.88 163.134 247.68 163.134 246.16C163.134 244.613 162.64 243.413 161.654 242.56C160.667 241.707 159.174 241.28 157.174 241.28H149.014L151.894 238.2V254.08ZM186.156 264V236H192.636V264H186.156ZM199.281 264V236H204.641L216.561 255.76H213.721L225.441 236H230.761L230.841 264H224.761L224.721 245.32H225.841L216.481 261.04H213.561L204.001 245.32H205.361V264H199.281ZM233.804 264L246.284 236H252.684L265.204 264H258.404L248.164 239.28H250.724L240.444 264H233.804ZM240.044 258L241.764 253.08H256.164L257.924 258H240.044ZM281.238 264.48C279.025 264.48 276.985 264.133 275.118 263.44C273.278 262.72 271.665 261.707 270.278 260.4C268.918 259.093 267.852 257.56 267.078 255.8C266.332 254.04 265.958 252.107 265.958 250C265.958 247.893 266.332 245.96 267.078 244.2C267.852 242.44 268.932 240.907 270.318 239.6C271.705 238.293 273.332 237.293 275.198 236.6C277.065 235.88 279.118 235.52 281.358 235.52C283.838 235.52 286.065 235.933 288.038 236.76C290.038 237.587 291.718 238.787 293.078 240.36L288.918 244.2C287.905 243.133 286.798 242.347 285.598 241.84C284.398 241.307 283.092 241.04 281.678 241.04C280.318 241.04 279.078 241.253 277.958 241.68C276.838 242.107 275.865 242.72 275.038 243.52C274.238 244.32 273.612 245.267 273.158 246.36C272.732 247.453 272.518 248.667 272.518 250C272.518 251.307 272.732 252.507 273.158 253.6C273.612 254.693 274.238 255.653 275.038 256.48C275.865 257.28 276.825 257.893 277.918 258.32C279.038 258.747 280.265 258.96 281.598 258.96C282.878 258.96 284.118 258.76 285.318 258.36C286.545 257.933 287.732 257.227 288.878 256.24L292.558 260.92C291.038 262.067 289.265 262.947 287.238 263.56C285.238 264.173 283.238 264.48 281.238 264.48ZM286.638 260.08V249.56H292.558V260.92L286.638 260.08ZM304.538 247.28H318.018V252.32H304.538V247.28ZM305.018 258.8H320.258V264H298.578V236H319.738V241.2H305.018V258.8ZM355.942 236H362.422V264H355.942V236ZM343.222 264H336.742V236H343.222V264ZM356.422 252.52H342.742V247.04H356.422V252.52ZM375.007 247.28H388.487V252.32H375.007V247.28ZM375.487 258.8H390.727V264H369.047V236H390.207V241.2H375.487V258.8ZM395.883 264V236H408.003C410.509 236 412.669 236.413 414.483 237.24C416.296 238.04 417.696 239.2 418.683 240.72C419.669 242.24 420.163 244.053 420.163 246.16C420.163 248.24 419.669 250.04 418.683 251.56C417.696 253.053 416.296 254.2 414.483 255C412.669 255.8 410.509 256.2 408.003 256.2H399.483L402.363 253.36V264H395.883ZM413.682 264L406.683 253.84H413.603L420.683 264H413.682ZM402.363 254.08L399.483 251.04H407.643C409.643 251.04 411.136 250.613 412.123 249.76C413.109 248.88 413.603 247.68 413.603 246.16C413.603 244.613 413.109 243.413 412.123 242.56C411.136 241.707 409.643 241.28 407.643 241.28H399.483L402.363 238.2V254.08ZM431.257 247.28H444.737V252.32H431.257V247.28ZM431.737 258.8H446.977V264H425.297V236H446.457V241.2H431.737V258.8Z" fill="#434343"/>
<rect x="7" y="7" width="486" height="486" stroke="#434343" stroke-width="14"/>
</svg>
