<svg width="621" height="228" viewBox="0 0 621 228" fill="none" xmlns="http://www.w3.org/2000/svg">
<path d="M1.67017 11.172H61.9482C90.2652 11.172 121.087 17.1 121.087 52.364C121.13 60.5778 118.402 68.5656 113.346 75.0344C108.289 81.5032 101.2 86.0744 93.2259 88.008V88.464C103.037 89.3119 112.157 93.8707 118.73 101.213C125.302 108.555 128.833 118.128 128.603 127.984C128.603 161.804 96.6422 173.052 67.8697 173.052H1.67017V11.172ZM37.2752 76H63.0869C74.0189 76 85.4824 71.44 85.4824 58.444C85.4824 45.448 72.6524 41.344 61.4927 41.344H37.2752V76ZM37.2752 143.032H69.2362C80.396 143.032 92.9982 138.244 92.9982 124.032C92.9982 109.82 75.9169 106.4 64.2257 106.4H37.2752V143.032Z" fill="#3784F4"/>
<path d="M162.842 7.068C166.779 7.05296 170.632 8.20798 173.913 10.3868C177.194 12.5656 179.755 15.6701 181.272 19.3072C182.789 22.9443 183.194 26.9503 182.435 30.8178C181.676 34.6854 179.788 38.2405 177.009 41.0328C174.23 43.8252 170.686 45.7292 166.826 46.5037C162.966 47.2781 158.962 46.8883 155.324 45.3835C151.685 43.8786 148.574 41.3265 146.385 38.0504C144.196 34.7742 143.027 30.9215 143.027 26.98C143.027 21.7122 145.112 16.6589 148.826 12.9269C152.54 9.19485 157.58 7.08811 162.842 7.068ZM145.76 61.94H179.999V173.052H145.76V61.94Z" fill="#3784F4"/>
<path d="M204.976 0H239.214V173.052H204.976V0Z" fill="#3784F4"/>
<path d="M264.494 0H298.733V173.052H264.494V0Z" fill="#3784F4"/>
<path d="M326.443 61.94H357.948V76.532H358.404C362.36 71.2205 367.487 66.8939 373.386 63.8886C379.285 60.8833 385.796 59.2803 392.414 59.204C425.362 59.204 446.999 82.992 446.999 116.584C446.999 147.44 427.867 175.788 396.362 175.788C389.746 176.352 383.091 175.314 376.96 172.761C370.829 170.208 365.401 166.215 361.137 161.12H360.681V225.188H326.443V61.94ZM385.354 145.54C389.069 145.76 392.789 145.178 396.259 143.833C399.73 142.488 402.872 140.412 405.471 137.745C408.07 135.078 410.066 131.883 411.324 128.376C412.581 124.869 413.071 121.133 412.76 117.42C412.76 110.144 409.873 103.165 404.733 98.0198C399.593 92.8746 392.623 89.984 385.354 89.984C378.085 89.984 371.115 92.8746 365.975 98.0198C360.835 103.165 357.948 110.144 357.948 117.42C357.623 121.152 358.107 124.911 359.369 128.439C360.63 131.966 362.638 135.179 365.255 137.857C367.873 140.535 371.037 142.615 374.533 143.954C378.028 145.293 381.771 145.86 385.506 145.616L385.354 145.54Z" fill="#3784F4"/>
<path d="M467.724 0H501.962V173.052H467.724V0Z" fill="#3784F4"/>
<path d="M522.308 138.776L579.853 89.376H523.826V61.94H619.633V94.848L558.9 145.616H621V173.052H522.308V138.776Z" fill="#3784F4"/>
</svg>
