<svg width="471" height="98" viewBox="0 0 471 98" fill="none" xmlns="http://www.w3.org/2000/svg">
<path d="M34.646 36.3223H22.747V58.3448C22.747 60.1816 23.203 61.5217 24.117 62.3651C25.03 63.2085 26.362 63.6864 28.114 63.7989C29.866 63.902 32.047 63.8926 34.646 63.7426V76.1315C25.309 77.1904 18.73 76.3095 14.901 73.4794C11.071 70.6587 9.15999 65.6075 9.15999 58.3354V36.3129H0V23.1837H9.15999V12.4911L22.747 8.3584V23.1837H34.646V36.3223Z" fill="#624EC4"/>
<path d="M86.832 69.5168C81.427 74.9147 74.83 77.6136 67.04 77.6136C59.249 77.6136 52.67 74.9147 47.294 69.5168C41.926 64.119 39.242 57.5029 39.242 49.6591C39.242 41.8153 41.926 35.2086 47.294 29.8013C52.661 24.4035 59.249 21.7045 67.04 21.7045C74.83 21.7045 81.427 24.4035 86.832 29.8013C92.237 35.1992 94.939 41.8247 94.939 49.6591C94.939 57.4935 92.237 64.119 86.832 69.5168ZM56.882 60.1456C59.585 62.9007 62.967 64.2783 67.04 64.2783C71.112 64.2783 74.513 62.9007 77.253 60.1456C79.992 57.3904 81.362 53.8949 81.362 49.6591C81.362 45.4233 79.992 41.9278 77.253 39.1726C74.513 36.4175 71.112 35.0399 67.04 35.0399C62.967 35.0399 59.575 36.4175 56.882 39.1726C54.18 41.9278 52.829 45.4233 52.829 49.6591C52.829 53.8949 54.18 57.3904 56.882 60.1456Z" fill="#624EC4"/>
<path d="M139.713 23.184H154.24L135.044 76.2161C132.304 83.7788 128.68 89.2706 124.16 92.7006C119.641 96.1306 114.012 97.6666 107.284 97.3106V84.6034C110.937 84.669 113.826 83.9006 115.969 82.27C118.112 80.6488 119.808 78.0342 121.076 74.4356L99.485 23.184H114.329L128.055 58.7668L139.713 23.184Z" fill="#624EC4"/>
<path d="M199.063 23.184H213.59L194.394 76.2161C191.654 83.7788 188.03 89.2706 183.51 92.7006C178.991 96.1306 173.362 97.6666 166.634 97.3106V84.6034C170.287 84.669 173.176 83.9006 175.319 82.27C177.462 80.6488 179.158 78.0342 180.426 74.4356L158.844 23.184H173.688L187.415 58.7668L199.063 23.184Z" fill="#624EC4"/>
<path d="M225.171 16.8402C222.925 16.8402 220.978 16.0061 219.329 14.3474C217.679 12.6887 216.85 10.7301 216.85 8.4716C216.85 6.2131 217.67 4.2358 219.329 2.5396C220.978 0.843399 222.925 0 225.171 0C227.492 0 229.467 0.843399 231.116 2.5396C232.766 4.2358 233.595 6.2131 233.595 8.4716C233.595 10.7301 232.766 12.6887 231.116 14.3474C229.476 16.0061 227.492 16.8402 225.171 16.8402ZM218.434 76.1323V23.1845H232.02V76.1323H218.434Z" fill="#624EC4"/>
<path d="M267.256 21.7033C274.348 21.7033 280.405 24.4022 285.418 29.8001C290.441 35.1979 292.948 41.8234 292.948 49.6578C292.948 57.4922 290.441 64.1083 285.418 69.5156C280.395 74.9134 274.348 77.6124 267.256 77.6124C259.885 77.6124 254.201 75.0353 250.194 69.8811V76.1317H236.608V2.00482H250.194V29.4346C254.201 24.2804 259.885 21.7033 267.256 21.7033ZM254.313 60.4067C257.052 63.1993 260.528 64.5863 264.74 64.5863C268.952 64.5863 272.447 63.19 275.214 60.4067C277.982 57.614 279.37 54.0342 279.37 49.6578C279.37 45.2814 277.982 41.7016 275.214 38.909C272.437 36.1257 268.952 34.7294 264.74 34.7294C260.528 34.7294 257.052 36.1257 254.313 38.909C251.573 41.7016 250.203 45.2814 250.203 49.6578C250.203 54.0436 251.573 57.6234 254.313 60.4067Z" fill="#624EC4"/>
<path d="M325.154 2.01422C332.246 2.01422 338.21 4.41332 343.055 9.21142C347.901 14.0095 350.324 19.904 350.324 26.895C350.324 33.886 347.901 39.7805 343.055 44.5786C338.21 49.3767 332.246 51.7757 325.154 51.7757H312.202V76.1317H297.674V2.00482H325.154V2.01422ZM325.154 38.1218C328.239 38.1218 330.801 37.0441 332.842 34.8887C334.874 32.7333 335.899 30.0718 335.899 26.895C335.899 23.6525 334.883 20.963 332.842 18.845C330.801 16.7271 328.248 15.6682 325.154 15.6682H312.202V38.1218H325.154Z" fill="#624EC4"/>
<path d="M397.668 23.1852H411.254V76.133H397.668V69.8823C393.595 75.0365 387.874 77.6136 380.503 77.6136C373.486 77.6136 367.466 74.9147 362.444 69.5168C357.421 64.119 354.914 57.5029 354.914 49.6591C354.914 41.8153 357.421 35.2086 362.444 29.8013C367.466 24.4035 373.486 21.7045 380.503 21.7045C387.874 21.7045 393.595 24.2816 397.668 29.4359V23.1852ZM372.61 60.4079C375.35 63.2006 378.826 64.5875 383.038 64.5875C387.25 64.5875 390.744 63.1912 393.512 60.4079C396.279 57.6153 397.668 54.0355 397.668 49.6591C397.668 45.2827 396.279 41.7029 393.512 38.9102C390.735 36.127 387.25 34.7306 383.038 34.7306C378.826 34.7306 375.35 36.127 372.61 38.9102C369.87 41.7029 368.501 45.2827 368.501 49.6591C368.501 54.0448 369.87 57.6247 372.61 60.4079Z" fill="#624EC4"/>
<path d="M456.065 23.184H470.592L451.396 76.2161C448.656 83.7788 445.031 89.2706 440.512 92.7006C435.993 96.1306 430.364 97.6666 423.636 97.3106V84.6034C427.289 84.669 430.178 83.9006 432.321 82.27C434.464 80.6488 436.16 78.0342 437.428 74.4356L415.846 23.184H430.69L444.416 58.7668L456.065 23.184Z" fill="#624EC4"/>
</svg>
